<?xml version="1.0" encoding="utf-8"?>
<!-- Generator: Adobe Illustrator 24.0.1, SVG Export Plug-In . SVG Version: 6.00 Build 0)  -->
<svg version="1.1" id="Layer_2" xmlns="http://www.w3.org/2000/svg" xmlns:xlink="http://www.w3.org/1999/xlink" x="0px" y="0px"
	 viewBox="0 0 529.7 221.4" style="enable-background:new 0 0 529.7 221.4;" xml:space="preserve">
<style type="text/css">
	.st0{fill:#C9E7FD;}
	.st1{fill:none;stroke:#C9E7FD;stroke-width:4;stroke-linecap:round;stroke-linejoin:round;stroke-miterlimit:10;}
	.st2{fill:none;stroke:#9BD2F4;stroke-width:4;stroke-linecap:round;stroke-miterlimit:10;}
	.st3{fill:none;stroke:#9BD2F4;stroke-width:4;stroke-linecap:round;stroke-linejoin:round;stroke-miterlimit:10;}
	.st4{fill:none;stroke:#C9E7FD;stroke-width:4;stroke-linecap:round;stroke-miterlimit:10;}
</style>
<circle class="st0" cx="365" cy="55.5" r="25.5"/>
<polyline class="st1" points="267,204.2 315.9,163.6 355.2,193.4 355.2,174.1 "/>
<line class="st1" x1="18.8" y1="205.1" x2="526" y2="205.1"/>
<line class="st1" x1="3.7" y1="205.1" x2="10.8" y2="205.1"/>
<line class="st2" x1="453.2" y1="217.5" x2="52.1" y2="217.5"/>
<line class="st2" x1="469.8" y1="217.5" x2="459.4" y2="217.5"/>
<path class="st1" d="M292.6,127.8c0-7,5.7-12.8,12.8-12.8c7,0,12.8,5.7,12.8,12.8l0.1,3.2h2.3c4.5,0,8.1,3.7,8.1,8.1
	s-3.7,8.1-8.1,8.1h-91.1"/>
<path class="st1" d="M247.3,120.4l22.6-0.1c0-9.5,7.7-17.3,17.2-17.3c7.7,0,14.1,5,16.4,12"/>
<line class="st1" x1="220.1" y1="133" x2="291.6" y2="132.7"/>
<line class="st1" x1="209.1" y1="132.8" x2="201.1" y2="132.8"/>
<path class="st1" d="M169.1,74.3c0-7,5.7-12.8,12.8-12.8s12.8,5.7,12.8,12.8l0.1,3.2h2.3c4.5,0,8.1,3.7,8.1,8.1s-3.7,8.1-8.1,8.1
	h-91.1"/>
<path class="st1" d="M123.8,66.8l22.6-0.1c0-9.5,7.7-17.3,17.2-17.3c7.7,0,14.1,5,16.4,12"/>
<line class="st1" x1="96.6" y1="79.4" x2="168.1" y2="79.1"/>
<line class="st1" x1="85.6" y1="79.2" x2="77.6" y2="79.2"/>
<circle class="st3" cx="365.2" cy="55.7" r="27.1"/>
<circle class="st3" cx="365.2" cy="55.7" r="26.3"/>
<path class="st4" d="M368.6,94.1c5.1-0.5,10.2-1.9,15-4.5C402.3,79.4,409.2,56,399,37.4c-10.2-18.7-33.5-25.6-52.2-15.4
	c-18.7,10.2-25.6,33.5-15.4,52.2c4.9,9.1,13,15.4,22.1,18.3"/>
<path class="st4" d="M321,84.1c2.4,3.7,5.3,7.2,8.6,10.3c21.3,19.7,54.6,18.3,74.2-3s18.3-54.6-3-74.2c-21.3-19.7-54.6-18.3-74.2,3
	c-9.6,10.4-14.2,23.5-13.9,36.6"/>
<line class="st1" x1="421" y1="204.6" x2="421" y2="152.5"/>
<polyline class="st1" points="407.6,147.3 407.6,168.9 419.5,168.9 "/>
<polyline class="st1" points="434.4,156.6 434.4,176.7 421.4,176.7 "/>
<polyline class="st1" points="410.2,182.3 410.2,192 420.6,192 "/>
<polyline class="st1" points="342.9,183.8 354.8,174.1 393.1,204.6 "/>
<line class="st1" x1="316.1" y1="164.8" x2="316.1" y2="204.6"/>
<g>
	<path class="st0" d="M139.1,191.5l17.2,0h8.1c4.2,0,7.6-3.4,7.6-7.6v-17.1c0-4.4-3.5-7.9-7.9-7.9c-2.2,0-4.1,0.9-5.6,2.3
		c-1.4,1.4-2.3,3.4-2.3,5.6v8.9h-17.2"/>
	<path class="st0" d="M181.4,115.1v24.1c0,4.2-3.4,7.6-7.6,7.6h-8.2v0h-19.4v70.6h-26.5v-47.8h-17.3v0h-8.1c-4.2,0-7.6-3.4-7.6-7.6
		v-33.1c0-4.4,3.5-7.9,7.9-7.9c2.2,0,4.1,0.9,5.6,2.3c1.4,1.4,2.3,3.4,2.3,5.6v23.9h17.3V103c0-7.3,5.9-13.2,13.2-13.2
		c3.7,0,7,1.5,9.4,3.9c2.4,2.4,3.9,5.7,3.9,9.4v27h19.4v-14.9c0-2.2,0.9-4.1,2.3-5.6c1.4-1.4,3.4-2.3,5.6-2.3
		C177.9,107.2,181.4,110.7,181.4,115.1z"/>
	<path class="st2" d="M146.2,191.9v25.4h-26.5v-47.8h-17.3v0h-8.1c-4.2,0-7.6-3.4-7.6-7.6v-33.1c0-4.4,3.5-7.9,7.9-7.9
		c2.2,0,4.1,0.9,5.6,2.3c1.4,1.4,2.3,3.4,2.3,5.6v23.9h17.3V99c0-7.3,5.9-13.2,13.2-13.2c3.7,0,7,1.5,9.4,3.9
		c2.4,2.4,3.9,5.7,3.9,9.4v31h19.4v-14.9c0-2.2,0.9-4.1,2.3-5.6c1.4-1.4,3.4-2.3,5.6-2.3c4.3,0,7.9,3.5,7.9,7.9v24.1
		c0,4.2-3.4,7.6-7.6,7.6h-8.2v0h-19.4v28.7"/>
	<path class="st2" d="M139.1,191.5l17.2,0h8.1c4.2,0,7.6-3.4,7.6-7.6v-17.1c0-4.4-3.5-7.9-7.9-7.9c-2.2,0-4.1,0.9-5.6,2.3
		c-1.4,1.4-2.3,3.4-2.3,5.6v8.9h-17.2"/>
	<line class="st2" x1="132.8" y1="85.4" x2="132.8" y2="75.6"/>
	<line class="st2" x1="141.6" y1="88" x2="148" y2="81.8"/>
	<line class="st2" x1="123.6" y1="88.2" x2="117.4" y2="81.9"/>
	<line class="st2" x1="94.9" y1="120.4" x2="94.9" y2="112.1"/>
	<line class="st2" x1="102.5" y1="124" x2="108.4" y2="118"/>
	<line class="st2" x1="173.2" y1="106.9" x2="173.2" y2="98.5"/>
	<line class="st2" x1="180.8" y1="110.4" x2="186.7" y2="104.5"/>
	<line class="st2" x1="87.5" y1="125.2" x2="81.6" y2="119.3"/>
</g>
</svg>
